<?xml version="1.0" encoding="utf-8"?>
<!-- Generator: Adobe Illustrator 24.1.2, SVG Export Plug-In . SVG Version: 6.00 Build 0)  -->
<svg version="1.1" xmlns="http://www.w3.org/2000/svg" xmlns:xlink="http://www.w3.org/1999/xlink" x="0px" y="0px"
	 viewBox="0 0 626 394" style="enable-background:new 0 0 626 394;" xml:space="preserve">
<style type="text/css">
   
</style>

<g id="Blob">
	<path fill="none" stroke="black" stroke-width="2" class="st1" d="M610.65,126.02c-0.42,0.11-0.87,0.18-1.37,0.18c-6.45,0-6.43-10,0-10c0.06,0,0.12,0.01,0.18,0.01
		c-2.33-14.54-7.22-29.17-15.96-42.71c-1.53-2.37-3.15-4.63-4.83-6.81c-0.56,0.22-1.2,0.36-1.92,0.36c-4.37,0-5.77-4.59-4.22-7.55
		c-7.81-8.31-16.96-15.14-27.36-20.79c-0.81,0.94-2.02,1.58-3.63,1.58c-3.55,0-5.14-3.04-4.77-5.77
		c-10.84-4.96-22.86-8.88-35.98-12.03c-0.75,0.56-1.72,0.9-2.91,0.9c-2.12,0-3.53-1.08-4.26-2.53c-18.9-4.04-39.9-6.7-62.8-8.76
		c-0.29,2.22-1.88,4.25-4.78,4.25c-3.25,0-4.86-2.55-4.83-5.07c-17.26-1.41-35.53-2.56-54.72-3.77c-2.04-0.13-4.05-0.24-6.05-0.35
		c-0.02,2.49-1.63,4.96-4.83,4.96c-3.4,0-5-2.78-4.81-5.41c-18.76-0.74-35.49-0.64-49.54-0.16c0.26,2.67-1.34,5.57-4.8,5.57
		c-3.29,0-4.9-2.61-4.82-5.17c-4.28,0.21-8.24,0.45-11.86,0.7c-0.49,0.16-1.03,0.24-1.63,0.24c-0.3,0-0.58-0.03-0.85-0.07
		c-8.53,0.62-14.94,1.28-18.81,1.68c-41.72,4.35-142.86,15.06-193.09,51.93c5.06,1.29,4.61,9.83-1.34,9.83
		c-2.92,0-4.51-2.05-4.78-4.3c-0.27,0.04-0.55,0.07-0.85,0.07c-0.01,0-0.01,0-0.02,0C60.51,73.99,54.33,81.77,50.5,90.5
		c-12.52,28.57,3.98,58.31,21.39,88.14c0.62-0.29,1.34-0.47,2.18-0.47c5.27,0,6.22,6.69,2.87,9.12c0.16,0.27,0.31,0.54,0.47,0.81
		c0.28-0.04,0.57-0.07,0.88-0.07c4.72,0,5.97,5.37,3.78,8.24c0.31,0.55,0.61,1.1,0.92,1.65c3.86,0.31,5.16,4.39,3.89,7.23
		c2.41,4.64,4.65,9.27,6.59,13.89c0.1-0.01,0.21-0.02,0.31-0.02c5.16,0,6.18,6.41,3.07,8.97c1.04,3.12,1.92,6.24,2.6,9.35
		c5.66,0.04,6.3,7.8,1.95,9.62c-0.04,0.59-0.16,1.17-0.38,1.72c0.35,6.91-0.47,13.78-2.85,20.6c3.23,2.49,2.24,9.05-2.97,9.05
		c-0.39,0-0.76-0.04-1.11-0.11c-1,1.74-2.07,3.42-3.24,5.03c1.72,2.95,0.35,7.75-4.11,7.75c-0.79,0-1.49-0.15-2.08-0.42
		c-1.23,1.26-2.51,2.48-3.85,3.65c1.99,2.91,0.68,8.04-3.93,8.04c-1.84,0-3.16-0.82-3.94-1.99c-0.61,0.41-1.22,0.82-1.84,1.22
		c1.77,2.94,0.42,7.81-4.07,7.81c-2.29,0-3.76-1.26-4.42-2.89c-3.43,1.77-6.99,3.4-10.63,4.88c-0.48,1.97-2.04,3.64-4.67,3.64
		c-1.14,0-2.07-0.32-2.81-0.83c-14.89,5.19-30.75,8.36-45,10.4c35.17,10.55,85.51,24.92,147.22,40.08c0.12-2.4,1.72-4.72,4.82-4.72
		c4.1,0,5.58,4.04,4.47,6.98c6.39,1.55,12.88,3.1,19.5,4.66c0.51,0.12,1.01,0.24,1.52,0.36c-1.74-2.95-0.38-7.77,4.09-7.77
		c5.43,0,6.28,7.11,2.56,9.34c56.44,13.27,85.93,19.92,105.83,20.08c54,0.43,99.87-16.96,138.64-38.23
		c-4.05-2.03-3.29-9.49,2.27-9.49c3.45,0,5.04,2.86,4.8,5.52c8.24-4.72,16.15-9.57,23.73-14.43c-3.84-2.16-3.02-9.39,2.45-9.39
		c3.08,0,4.69,2.29,4.82,4.68c22.22-14.6,41.56-28.78,58.29-38.64c8.72-5.14,25.78-16.17,42.42-34.78
		c-1.35-2.96,0.09-7.31,4.34-7.31c0.61,0,1.16,0.09,1.65,0.25c8.28-10.33,16.19-22.64,22.59-37.16
		C597.13,210.8,614.44,170.07,610.65,126.02z"/>
	
</g>
</svg>
