<?xml version="1.0" encoding="utf-8"?>
<!-- Generator: Adobe Illustrator 24.1.2, SVG Export Plug-In . SVG Version: 6.00 Build 0)  -->
<svg version="1.1" xmlns="http://www.w3.org/2000/svg" xmlns:xlink="http://www.w3.org/1999/xlink" x="0px" y="0px"
	 viewBox="0 0 200 200" style="enable-background:new 0 0 200 200;" xml:space="preserve">
<style type="text/css">
	.st0{fill:#FFC26A;stroke:#000000;stroke-miterlimit:10;}
	.st1{fill:#FFFFFF;stroke:#231F20;stroke-linecap:round;stroke-miterlimit:10;}
	.st2{fill:#FFFFFF;stroke:#FFC26A;stroke-width:2;stroke-miterlimit:10;}
</style>
<g id="Layer_1">
	<rect x="7.5" y="59.5" class="st0" width="114" height="94"/>
	<ellipse class="st1" cx="65" cy="106" rx="48.5" ry="40.5"/>
	<g>
		<polygon class="st2" points="90.17,91.41 85.08,119.72 36.22,119.72 24,91.41 		"/>
		<polyline class="st2" points="89.69,94.12 91.2,81.5 101,81.5 		"/>
		<polyline class="st2" points="85.08,119.72 83.05,128.21 37.23,128.21 		"/>
		<line class="st2" x1="33.37" y1="113.13" x2="86.27" y2="113.13"/>
		<line class="st2" x1="25.53" y1="96.57" x2="89.67" y2="96.57"/>
		<line class="st2" x1="28.58" y1="101.52" x2="87.63" y2="101.52"/>
		<line class="st2" x1="30.62" y1="107.19" x2="87.36" y2="107.19"/>
		<line class="st2" x1="43.42" y1="119.61" x2="39.86" y2="91.52"/>
		<ellipse class="st2" cx="47.42" cy="133.17" rx="5.09" ry="2.83"/>
		<ellipse class="st2" cx="74.9" cy="133.17" rx="5.09" ry="2.83"/>
		<line class="st2" x1="54.53" y1="119.38" x2="50.97" y2="91.29"/>
		<line class="st2" x1="66.53" y1="119.38" x2="62.97" y2="91.29"/>
	</g>
	<line class="st2" x1="78.53" y1="119.38" x2="74.94" y2="91.01"/>
</g>
<g id="Layer_2">
</g>
</svg>
